<svg xmlns="http://www.w3.org/2000/svg" version="1.1" xmlns:xlink="http://www.w3.org/1999/xlink" xmlns:svgjs="http://svgjs.dev/svgjs" width="1440" height="560" preserveAspectRatio="none" viewBox="0 0 1440 560"><g mask="url(&quot;#SvgjsMask1002&quot;)" fill="none"><rect width="1440" height="560" x="0" y="0" fill="#0e2a47"></rect><path d="M 0,148 C 57.6,135.8 172.8,87.8 288,87 C 403.2,86.2 460.8,135.4 576,144 C 691.2,152.6 748.8,114.4 864,130 C 979.2,145.6 1036.8,220.6 1152,222 C 1267.2,223.4 1382.4,154 1440,137L1440 560L0 560z" fill="rgba(42, 42, 42, 1)"></path><path d="M 0,312 C 96,357.4 288,521.2 480,539 C 672,556.8 768,414.8 960,401 C 1152,387.2 1344,456.2 1440,470L1440 560L0 560z" fill="rgba(244, 241, 234, 1)"></path></g><defs><mask id="SvgjsMask1002"><rect width="1440" height="560" fill="#ffffff"></rect></mask></defs></svg>